<?xml version="1.0" encoding="utf-8"?>
<!-- Generator: Adobe Illustrator 19.1.0, SVG Export Plug-In . SVG Version: 6.00 Build 0)  -->
<svg version="1.1" xmlns="http://www.w3.org/2000/svg" xmlns:xlink="http://www.w3.org/1999/xlink" x="0px" y="0px"
	 viewBox="0 0 243 45" enable-background="new 0 0 243 45" xml:space="preserve">
<g id="Background">
</g>
<g id="Icons">
	<g>
		<g>
			<path fill="#FFFFFF" d="M29.829,27.55c-0.539,0.601-1.083,1.198-1.607,1.812c-2.145,2.523-4.129,5.15-5.723,7.872
				c-1.594-2.723-3.578-5.349-5.723-7.872c-0.523-0.614-1.067-1.211-1.607-1.812H9.04c1.478,1.544,2.941,3.122,4.311,4.731
				c3.067,3.593,5.668,7.314,7.058,10.825c0.341,0.858,1.167,1.418,2.091,1.418c0.924,0,1.749-0.56,2.091-1.418
				c1.39-3.511,3.991-7.231,7.058-10.825c1.37-1.608,2.833-3.187,4.311-4.731H29.829z"/>
			<path fill="#FFAE00" d="M33,1.675c-3.685,0-6.979,1.664-9.18,4.279c1.453,2.22,2.305,4.869,2.305,7.721
				c0,2.852-0.852,5.501-2.305,7.721c2.201,2.615,5.495,4.279,9.18,4.279c6.63,0,12-5.372,12-12C45,7.047,39.63,1.675,33,1.675z"/>
			<circle fill="#1964E6" cx="12" cy="13.675" r="12"/>
		</g>
		<g>
			<path fill="#FFFFFF" d="M65.619,14.261c-0.117,0.234-0.253,0.399-0.407,0.496c-0.155,0.096-0.339,0.144-0.553,0.144
				c-0.213,0-0.453-0.082-0.72-0.248c-0.267-0.165-0.581-0.349-0.944-0.552c-0.362-0.202-0.786-0.387-1.271-0.552
				c-0.485-0.166-1.059-0.248-1.72-0.248c-0.598,0-1.118,0.071-1.561,0.216c-0.442,0.144-0.815,0.344-1.12,0.6
				c-0.304,0.256-0.53,0.563-0.68,0.92c-0.149,0.357-0.224,0.75-0.224,1.177c0,0.544,0.151,0.997,0.456,1.359
				c0.304,0.363,0.706,0.672,1.208,0.928c0.501,0.257,1.071,0.486,1.712,0.688c0.64,0.203,1.293,0.419,1.96,0.648
				c0.666,0.229,1.319,0.495,1.96,0.8c0.64,0.304,1.21,0.688,1.712,1.151c0.501,0.465,0.904,1.032,1.208,1.704
				s0.456,1.488,0.456,2.448c0,1.046-0.179,2.024-0.536,2.937c-0.357,0.911-0.88,1.706-1.568,2.384
				c-0.688,0.677-1.527,1.211-2.52,1.6c-0.992,0.39-2.128,0.584-3.408,0.584c-0.736,0-1.462-0.072-2.176-0.216
				c-0.715-0.144-1.4-0.35-2.057-0.616c-0.655-0.267-1.27-0.586-1.84-0.96c-0.57-0.373-1.08-0.789-1.527-1.248l1.248-2.063
				c0.117-0.149,0.258-0.274,0.424-0.376c0.165-0.102,0.349-0.152,0.552-0.152c0.267,0,0.555,0.109,0.864,0.328
				c0.309,0.219,0.674,0.461,1.096,0.728c0.421,0.267,0.917,0.51,1.488,0.729c0.57,0.219,1.256,0.328,2.056,0.328
				c1.227,0,2.176-0.291,2.848-0.872c0.673-0.581,1.009-1.416,1.009-2.504c0-0.608-0.152-1.104-0.456-1.488
				c-0.305-0.384-0.707-0.707-1.208-0.968c-0.502-0.262-1.072-0.482-1.712-0.664c-0.641-0.182-1.291-0.379-1.952-0.592
				c-0.662-0.214-1.312-0.47-1.952-0.769s-1.211-0.688-1.712-1.168c-0.502-0.479-0.904-1.08-1.208-1.8
				c-0.305-0.72-0.456-1.608-0.456-2.664c0-0.843,0.168-1.664,0.504-2.464s0.826-1.51,1.472-2.128
				c0.646-0.619,1.438-1.115,2.376-1.488s2.011-0.56,3.216-0.56c1.365,0,2.624,0.213,3.776,0.64s2.134,1.024,2.944,1.792
				L65.619,14.261z"/>
			<path fill="#FFFFFF" d="M76.478,16.517c1.034,0,1.986,0.165,2.855,0.496c0.869,0.33,1.619,0.813,2.248,1.448
				c0.63,0.635,1.12,1.413,1.473,2.336c0.352,0.922,0.527,1.976,0.527,3.159c0,0.299-0.014,0.547-0.04,0.744
				c-0.026,0.198-0.074,0.353-0.144,0.464c-0.069,0.112-0.163,0.192-0.28,0.24s-0.267,0.072-0.448,0.072H72.525
				c0.117,1.686,0.57,2.923,1.36,3.712c0.789,0.789,1.834,1.184,3.136,1.184c0.64,0,1.191-0.074,1.656-0.224
				c0.464-0.149,0.869-0.314,1.216-0.496c0.347-0.181,0.65-0.347,0.912-0.496c0.261-0.149,0.514-0.224,0.76-0.224
				c0.16,0,0.299,0.032,0.416,0.096c0.117,0.064,0.219,0.155,0.304,0.272l1.152,1.439c-0.438,0.513-0.928,0.941-1.473,1.288
				c-0.544,0.347-1.111,0.624-1.703,0.832c-0.593,0.208-1.195,0.354-1.809,0.44c-0.613,0.085-1.208,0.128-1.784,0.128
				c-1.142,0-2.202-0.189-3.184-0.568c-0.981-0.378-1.835-0.938-2.56-1.68c-0.726-0.741-1.297-1.658-1.713-2.752
				s-0.624-2.36-0.624-3.8c0-1.12,0.182-2.174,0.544-3.16c0.363-0.986,0.883-1.846,1.561-2.576c0.677-0.73,1.504-1.31,2.479-1.736
				C74.149,16.729,75.251,16.517,76.478,16.517z M76.558,19.349c-1.152,0-2.054,0.325-2.704,0.976
				c-0.651,0.651-1.067,1.574-1.248,2.769h7.424c0-0.513-0.069-0.995-0.208-1.448s-0.352-0.851-0.64-1.192
				c-0.288-0.341-0.651-0.61-1.088-0.808C77.656,19.447,77.144,19.349,76.558,19.349z"/>
			<path fill="#FFFFFF" d="M86.121,33.188V16.772h2.32c0.405,0,0.688,0.075,0.848,0.224c0.16,0.149,0.267,0.406,0.32,0.769
				l0.24,1.983c0.586-1.013,1.274-1.812,2.063-2.399c0.79-0.587,1.675-0.88,2.656-0.88c0.811,0,1.482,0.187,2.017,0.56l-0.513,2.96
				c-0.031,0.192-0.102,0.328-0.208,0.408s-0.25,0.12-0.432,0.12c-0.16,0-0.379-0.037-0.656-0.112
				c-0.277-0.074-0.646-0.112-1.104-0.112c-0.822,0-1.525,0.228-2.112,0.681s-1.083,1.117-1.488,1.992v10.224H86.121z"/>
			<path fill="#FFFFFF" d="M107.513,33.188h-3.584l-6.527-16.416h3.279c0.288,0,0.531,0.069,0.729,0.208s0.333,0.314,0.408,0.528
				l3.168,8.768c0.181,0.512,0.333,1.014,0.456,1.504c0.122,0.491,0.231,0.981,0.327,1.473c0.097-0.491,0.206-0.981,0.328-1.473
				c0.123-0.49,0.28-0.992,0.473-1.504l3.248-8.768c0.074-0.214,0.208-0.39,0.399-0.528c0.192-0.139,0.422-0.208,0.688-0.208h3.12
				L107.513,33.188z"/>
			<path fill="#FFFFFF" d="M120.313,11.988c0,0.342-0.07,0.662-0.208,0.96c-0.139,0.299-0.323,0.561-0.553,0.784
				s-0.498,0.402-0.808,0.536s-0.64,0.2-0.992,0.2c-0.341,0-0.664-0.066-0.968-0.2s-0.568-0.312-0.792-0.536
				s-0.402-0.485-0.536-0.784c-0.134-0.298-0.2-0.618-0.2-0.96c0-0.352,0.066-0.683,0.2-0.992c0.134-0.309,0.312-0.575,0.536-0.8
				c0.224-0.224,0.488-0.402,0.792-0.536c0.304-0.133,0.627-0.199,0.968-0.199c0.353,0,0.683,0.066,0.992,0.199
				c0.31,0.134,0.578,0.312,0.808,0.536c0.229,0.225,0.414,0.491,0.553,0.8C120.243,11.306,120.313,11.637,120.313,11.988z
				 M119.721,16.772v16.416h-3.951V16.772H119.721z"/>
			<path fill="#FFFFFF" d="M134.856,20.244c-0.117,0.149-0.231,0.267-0.344,0.353c-0.112,0.085-0.274,0.128-0.488,0.128
				c-0.202,0-0.399-0.062-0.592-0.185c-0.191-0.122-0.421-0.261-0.688-0.416c-0.268-0.154-0.584-0.293-0.952-0.416
				c-0.368-0.122-0.824-0.184-1.368-0.184c-0.693,0-1.302,0.126-1.824,0.376c-0.522,0.251-0.957,0.61-1.304,1.08
				s-0.605,1.037-0.776,1.704s-0.256,1.422-0.256,2.264c0,0.875,0.094,1.653,0.28,2.336s0.456,1.256,0.808,1.721
				c0.353,0.464,0.778,0.815,1.28,1.056c0.501,0.24,1.066,0.36,1.696,0.36c0.629,0,1.138-0.078,1.527-0.232s0.718-0.325,0.984-0.512
				s0.498-0.357,0.696-0.513c0.197-0.154,0.418-0.231,0.664-0.231c0.319,0,0.56,0.123,0.72,0.368l1.136,1.439
				c-0.438,0.513-0.912,0.941-1.424,1.288s-1.043,0.624-1.592,0.832c-0.55,0.208-1.118,0.354-1.704,0.44
				c-0.587,0.085-1.168,0.128-1.744,0.128c-1.014,0-1.968-0.189-2.864-0.568c-0.896-0.378-1.678-0.931-2.344-1.656
				c-0.667-0.725-1.194-1.613-1.584-2.664c-0.39-1.05-0.584-2.248-0.584-3.592c0-1.205,0.173-2.322,0.52-3.352
				s0.856-1.92,1.528-2.672s1.504-1.342,2.496-1.769s2.133-0.64,3.424-0.64c1.227,0,2.302,0.197,3.225,0.592
				c0.922,0.395,1.752,0.96,2.487,1.696L134.856,20.244z"/>
			<path fill="#FFFFFF" d="M144.428,16.517c1.034,0,1.986,0.165,2.855,0.496c0.869,0.33,1.619,0.813,2.248,1.448
				c0.63,0.635,1.12,1.413,1.473,2.336c0.352,0.922,0.527,1.976,0.527,3.159c0,0.299-0.014,0.547-0.04,0.744
				c-0.026,0.198-0.074,0.353-0.144,0.464c-0.069,0.112-0.163,0.192-0.28,0.24s-0.267,0.072-0.448,0.072h-10.144
				c0.117,1.686,0.57,2.923,1.36,3.712c0.789,0.789,1.834,1.184,3.136,1.184c0.64,0,1.191-0.074,1.656-0.224
				c0.464-0.149,0.869-0.314,1.216-0.496c0.347-0.181,0.65-0.347,0.912-0.496c0.261-0.149,0.514-0.224,0.76-0.224
				c0.16,0,0.299,0.032,0.416,0.096c0.117,0.064,0.219,0.155,0.304,0.272l1.152,1.439c-0.438,0.513-0.928,0.941-1.473,1.288
				c-0.544,0.347-1.111,0.624-1.703,0.832c-0.593,0.208-1.195,0.354-1.809,0.44c-0.613,0.085-1.208,0.128-1.784,0.128
				c-1.142,0-2.202-0.189-3.184-0.568c-0.981-0.378-1.835-0.938-2.56-1.68c-0.726-0.741-1.297-1.658-1.713-2.752
				s-0.624-2.36-0.624-3.8c0-1.12,0.182-2.174,0.544-3.16c0.363-0.986,0.883-1.846,1.561-2.576c0.677-0.73,1.504-1.31,2.479-1.736
				C142.1,16.729,143.201,16.517,144.428,16.517z M144.508,19.349c-1.152,0-2.054,0.325-2.704,0.976
				c-0.651,0.651-1.067,1.574-1.248,2.769h7.424c0-0.513-0.069-0.995-0.208-1.448s-0.352-0.851-0.64-1.192
				c-0.288-0.341-0.651-0.61-1.088-0.808C145.606,19.447,145.094,19.349,144.508,19.349z"/>
			<path fill="#FFFFFF" d="M172.627,24.652c0.154,0.368,0.307,0.739,0.456,1.112c0.149-0.384,0.304-0.763,0.464-1.136
				c0.16-0.374,0.331-0.73,0.513-1.072l6.848-12.816c0.085-0.16,0.173-0.288,0.264-0.384s0.192-0.165,0.305-0.208
				c0.111-0.042,0.236-0.069,0.376-0.08c0.138-0.011,0.304-0.016,0.495-0.016h3.248v23.136h-3.792V18.244
				c0-0.277,0.009-0.581,0.024-0.912c0.016-0.33,0.04-0.666,0.072-1.008l-6.992,13.12c-0.16,0.299-0.368,0.531-0.624,0.696
				s-0.555,0.248-0.896,0.248h-0.592c-0.341,0-0.64-0.083-0.896-0.248s-0.464-0.397-0.624-0.696l-7.088-13.168
				c0.042,0.353,0.071,0.696,0.088,1.032c0.016,0.336,0.023,0.647,0.023,0.936v14.944h-3.792V10.053h3.248
				c0.192,0,0.357,0.005,0.496,0.016s0.265,0.038,0.376,0.08c0.112,0.043,0.216,0.112,0.312,0.208
				c0.096,0.096,0.187,0.224,0.271,0.384l6.912,12.849C172.305,23.93,172.473,24.284,172.627,24.652z"/>
			<path fill="#FFFFFF" d="M202.136,33.188h-1.776c-0.373,0-0.667-0.056-0.88-0.168c-0.214-0.112-0.374-0.339-0.48-0.68
				l-0.352-1.168c-0.416,0.373-0.824,0.701-1.224,0.983c-0.4,0.283-0.813,0.521-1.24,0.712c-0.427,0.192-0.88,0.336-1.36,0.433
				c-0.479,0.096-1.014,0.144-1.6,0.144c-0.693,0-1.334-0.094-1.92-0.28c-0.587-0.188-1.091-0.469-1.513-0.843
				c-0.421-0.375-0.749-0.841-0.983-1.397c-0.235-0.556-0.353-1.203-0.353-1.942c0-0.62,0.163-1.233,0.488-1.838
				s0.866-1.15,1.624-1.638c0.757-0.486,1.766-0.891,3.024-1.212c1.258-0.32,2.821-0.481,4.688-0.481v-0.967
				c0-1.107-0.231-1.927-0.696-2.459c-0.464-0.532-1.139-0.798-2.023-0.798c-0.641,0-1.174,0.074-1.601,0.224
				s-0.797,0.317-1.111,0.504c-0.315,0.187-0.605,0.354-0.872,0.504s-0.561,0.225-0.88,0.225c-0.267,0-0.496-0.069-0.688-0.208
				c-0.191-0.139-0.347-0.31-0.464-0.513l-0.72-1.264c1.888-1.729,4.165-2.592,6.832-2.592c0.96,0,1.815,0.157,2.567,0.472
				s1.39,0.752,1.912,1.312c0.522,0.56,0.92,1.229,1.192,2.008c0.271,0.778,0.408,1.632,0.408,2.56V33.188z M194.455,30.725
				c0.405,0,0.779-0.037,1.12-0.11c0.342-0.073,0.664-0.184,0.968-0.331c0.305-0.146,0.598-0.328,0.881-0.543
				c0.282-0.215,0.567-0.47,0.855-0.764v-2.748c-1.152,0-2.114,0.072-2.888,0.218c-0.773,0.145-1.395,0.33-1.864,0.556
				s-0.803,0.489-1,0.79s-0.296,0.628-0.296,0.982c0,0.698,0.205,1.198,0.616,1.499C193.258,30.574,193.794,30.725,194.455,30.725z"
				/>
			<path fill="#FFFFFF" d="M205.349,38.549V16.772h2.416c0.256,0,0.475,0.059,0.656,0.176c0.181,0.118,0.298,0.299,0.352,0.544
				l0.32,1.521c0.661-0.758,1.421-1.371,2.28-1.84c0.858-0.47,1.863-0.704,3.016-0.704c0.896,0,1.715,0.187,2.456,0.56
				c0.741,0.374,1.381,0.915,1.92,1.624c0.538,0.71,0.954,1.584,1.248,2.624c0.293,1.04,0.439,2.232,0.439,3.576
				c0,1.227-0.165,2.362-0.495,3.408c-0.331,1.045-0.803,1.952-1.416,2.72c-0.614,0.768-1.355,1.368-2.225,1.8
				c-0.869,0.433-1.843,0.648-2.92,0.648c-0.928,0-1.715-0.142-2.36-0.424c-0.646-0.283-1.224-0.675-1.735-1.177v6.721H205.349z
				 M213.028,19.589c-0.821,0-1.522,0.173-2.104,0.52c-0.582,0.347-1.123,0.835-1.624,1.464v7.36
				c0.448,0.555,0.936,0.941,1.464,1.16s1.096,0.328,1.704,0.328c0.597,0,1.139-0.112,1.624-0.336
				c0.485-0.225,0.896-0.565,1.231-1.024s0.595-1.037,0.776-1.736c0.182-0.698,0.272-1.522,0.272-2.472
				c0-0.96-0.078-1.773-0.232-2.44c-0.155-0.666-0.376-1.208-0.664-1.624s-0.638-0.72-1.048-0.911
				C214.018,19.685,213.551,19.589,213.028,19.589z"/>
		</g>
	</g>
</g>
<g id="Frames_for_sizing">
</g>
</svg>
