<svg xmlns="http://www.w3.org/2000/svg" viewBox="0 0 39 39">
  <defs>
    <style>
      .cls-1 {
        fill: #1964e6;
      }

      .cls-2 {
        fill: none;
      }

      .cls-3 {
        fill: #fff;
      }
    </style>
  </defs>
  <g id="Web-Accessibility-person-circled" transform="translate(-216.214 -361.611)">
    <g id="Group_11" data-name="Group 11" transform="translate(216.214 361.611)">
      <path id="Path_49" data-name="Path 49" class="cls-1" d="M246.214,356.8c11.023-.295,19.537-8.448,19.586-19.5a19.5,19.5,0,0,0-39-.025C226.8,348.278,235.215,356.407,246.214,356.8Z" transform="translate(-226.8 -317.8)"/>
      <path id="Path_50" data-name="Path 50" class="cls-2" d="M246.214,356.8c-11-.393-19.414-8.5-19.414-19.525a19.5,19.5,0,0,1,39,.025C265.751,348.351,257.237,356.505,246.214,356.8Zm-.049-14.907h.369a9.33,9.33,0,0,1,.369,1.081c.591,2.284,1.132,4.592,1.722,6.877.418,1.645,1.132,2.235,2.141,1.94.984-.295,1.181-1.179.689-2.824a47.881,47.881,0,0,1-2.387-13.434c-.025-1.965.123-2.038,2.042-2.137,1.944-.123,3.912-.368,5.832-.639a1.391,1.391,0,0,0,1.353-1.695,1.5,1.5,0,0,0-1.944-1.2,74.651,74.651,0,0,1-16.879.467c-1.23-.074-2.436-.221-3.666-.27a1.434,1.434,0,0,0-1.624,1.351,1.343,1.343,0,0,0,1.255,1.547,13.4,13.4,0,0,0,1.7.221c1.624.1,3.273.172,4.9.27,1.058.074,1.8.491,1.673,1.768-.148,1.547-.123,3.119-.418,4.617-.64,3.266-1.452,6.508-2.214,9.75-.271,1.179.025,2.038.886,2.21,1.107.221,1.7-.344,1.968-1.351.566-2.161,1.132-4.322,1.7-6.508C245.82,343.243,245.992,342.58,246.165,341.892ZM242.5,325.782a3.791,3.791,0,1,0,7.578.2,3.793,3.793,0,1,0-7.578-.2Z" transform="translate(-226.8 -317.8)"/>
      <path id="Path_51" data-name="Path 51" class="cls-3" d="M266.258,376.214c-.135.54-.27,1.06-.405,1.6-.444,1.7-.888,3.392-1.332,5.107-.212.79-.676,1.253-1.545,1.06-.676-.135-.907-.809-.7-1.734.6-2.543,1.236-5.087,1.738-7.65.232-1.175.193-2.428.328-3.623.1-1-.463-1.33-1.313-1.387-1.274-.1-2.568-.135-3.842-.212q-.666-.058-1.332-.173a1.066,1.066,0,0,1-.985-1.214,1.127,1.127,0,0,1,1.274-1.06c.965.058,1.911.154,2.877.212a58.564,58.564,0,0,0,13.244-.366,1.177,1.177,0,0,1,1.525.944,1.091,1.091,0,0,1-1.062,1.33c-1.525.212-3.05.4-4.576.5-1.506.1-1.622.135-1.6,1.676a37.687,37.687,0,0,0,1.873,10.541c.386,1.291.232,1.985-.541,2.216-.792.25-1.352-.231-1.68-1.522-.463-1.792-.907-3.584-1.352-5.4-.077-.289-.193-.559-.29-.848Z" transform="translate(-246.869 -353.194)"/>
      <path id="Path_52" data-name="Path 52" class="cls-3" d="M290.6,337.705a2.976,2.976,0,1,1,5.946.154,2.975,2.975,0,1,1-5.946-.154Z" transform="translate(-274.087 -327.327)"/>
      <path id="Path_53" data-name="Path 53" class="cls-3" d="M266.258,376.214c-.135.54-.27,1.06-.405,1.6-.444,1.7-.888,3.392-1.332,5.107-.212.79-.676,1.253-1.545,1.06-.676-.135-.907-.809-.7-1.734.6-2.543,1.236-5.087,1.738-7.65.232-1.175.193-2.428.328-3.623.1-1-.463-1.33-1.313-1.387-1.274-.1-2.568-.135-3.842-.212q-.666-.058-1.332-.173a1.066,1.066,0,0,1-.985-1.214,1.127,1.127,0,0,1,1.274-1.06c.965.058,1.911.154,2.877.212a58.564,58.564,0,0,0,13.244-.366,1.177,1.177,0,0,1,1.525.944,1.091,1.091,0,0,1-1.062,1.33c-1.525.212-3.05.4-4.576.5-1.506.1-1.622.135-1.6,1.676a37.687,37.687,0,0,0,1.873,10.541c.386,1.291.232,1.985-.541,2.216-.792.25-1.352-.231-1.68-1.522-.463-1.792-.907-3.584-1.352-5.4-.077-.289-.193-.559-.29-.848Z" transform="translate(-246.869 -353.194)"/>
      <path id="Path_54" data-name="Path 54" class="cls-3" d="M290.6,337.705a2.976,2.976,0,1,1,5.946.154,2.975,2.975,0,1,1-5.946-.154Z" transform="translate(-274.087 -327.327)"/>
    </g>
  </g>
</svg>
