<?xml version="1.0" standalone="no"?>
<!DOCTYPE svg PUBLIC "-//W3C//DTD SVG 20010904//EN"
 "http://www.w3.org/TR/2001/REC-SVG-20010904/DTD/svg10.dtd">
<svg version="1.0" xmlns="http://www.w3.org/2000/svg"
 width="308.000000pt" height="308.000000pt" viewBox="0 0 308.000000 308.000000"
 preserveAspectRatio="xMidYMid meet">
<metadata>
Created by potrace 1.11, written by Peter Selinger 2001-2013
</metadata>
<g transform="translate(0.000000,308.000000) scale(0.100000,-0.100000)"
fill="#000000" stroke="none">
<path d="M739 3006 c-2 -2 -25 -7 -50 -10 -309 -41 -583 -294 -664 -610 -31
-120 -29 -311 5 -426 37 -128 120 -269 212 -362 110 -109 287 -201 434 -225
72 -12 260 -9 323 5 257 58 489 254 584 493 107 269 71 572 -94 795 -157 212
-378 329 -640 339 -59 2 -108 3 -110 1z"/>
<path d="M2179 3006 c-2 -2 -26 -7 -52 -10 -145 -20 -312 -103 -429 -215 l-71
-67 25 -40 c61 -95 112 -242 127 -361 9 -66 7 -248 -3 -288 -2 -11 -9 -41 -15
-67 -16 -70 -57 -174 -96 -244 l-35 -61 57 -57 c96 -96 234 -174 373 -212 100
-27 300 -25 408 4 230 62 408 204 521 413 115 213 122 510 19 729 -113 238
-324 404 -593 465 -32 8 -230 16 -236 11z"/>
<path d="M630 1220 c5 -8 17 -22 27 -31 16 -14 155 -163 200 -215 10 -12 41
-47 68 -79 28 -32 56 -68 64 -79 8 -12 18 -23 21 -26 10 -8 121 -158 171 -230
66 -94 149 -241 194 -344 31 -69 49 -96 79 -118 44 -32 96 -37 149 -14 45 19
70 50 106 134 110 252 329 556 650 901 53 57 97 106 99 110 1 3 -93 6 -209 6
-179 0 -212 -3 -222 -16 -7 -8 -51 -60 -98 -115 -135 -157 -307 -390 -375
-509 -10 -17 -17 -10 -69 70 -78 122 -233 327 -348 460 l-94 110 -211 0 c-184
0 -209 -2 -202 -15z"/>
</g>
</svg>
