<?xml version="1.0" encoding="utf-8"?>
<!-- Generator: Adobe Illustrator 19.1.0, SVG Export Plug-In . SVG Version: 6.00 Build 0)  -->
<svg version="1.1" xmlns="http://www.w3.org/2000/svg" xmlns:xlink="http://www.w3.org/1999/xlink" x="0px" y="0px"
	 viewBox="0 0 243 45" enable-background="new 0 0 243 45" xml:space="preserve">
<g id="Background">
</g>
<g id="Icons">
	<g>
		<g>
			<path fill="#FFFFFF" d="M29.829,27.55c-0.539,0.601-1.083,1.198-1.607,1.812c-2.145,2.523-4.129,5.15-5.723,7.872
				c-1.594-2.723-3.578-5.349-5.723-7.872c-0.523-0.614-1.067-1.211-1.607-1.812H9.04c1.478,1.544,2.941,3.122,4.311,4.731
				c3.067,3.593,5.668,7.314,7.058,10.825c0.341,0.858,1.167,1.418,2.091,1.418c0.924,0,1.749-0.56,2.091-1.418
				c1.39-3.511,3.991-7.231,7.058-10.825c1.37-1.608,2.833-3.187,4.311-4.731H29.829z"/>
			<path fill="#FFAE00" d="M33,1.675c-3.685,0-6.979,1.664-9.18,4.279c1.453,2.22,2.305,4.869,2.305,7.721
				c0,2.852-0.852,5.501-2.305,7.721c2.201,2.615,5.495,4.279,9.18,4.279c6.63,0,12-5.372,12-12C45,7.047,39.63,1.675,33,1.675z"/>
			<circle fill="#1964E6" cx="12" cy="13.675" r="12"/>
		</g>
		<g>
			<path fill="#FFFFFF" d="M57.668,25.045v8.144h-4.305V10.053h7.536c1.547,0,2.886,0.182,4.017,0.544
				c1.13,0.362,2.063,0.869,2.8,1.52c0.735,0.651,1.279,1.43,1.632,2.336c0.352,0.907,0.528,1.899,0.528,2.977
				c0,1.12-0.188,2.146-0.561,3.08s-0.934,1.735-1.68,2.407c-0.747,0.673-1.681,1.195-2.8,1.568
				c-1.12,0.374-2.433,0.561-3.937,0.561H57.668z M57.668,21.685h3.231c0.789,0,1.478-0.099,2.064-0.296
				c0.586-0.197,1.071-0.48,1.456-0.849c0.384-0.367,0.672-0.815,0.863-1.344c0.192-0.527,0.288-1.117,0.288-1.768
				c0-0.619-0.096-1.179-0.288-1.681c-0.191-0.501-0.479-0.928-0.863-1.279c-0.385-0.353-0.87-0.621-1.456-0.809
				c-0.587-0.187-1.275-0.279-2.064-0.279h-3.231V21.685z"/>
			<path fill="#FFFFFF" d="M84.035,33.188H82.26c-0.374,0-0.667-0.056-0.881-0.168c-0.213-0.112-0.373-0.339-0.479-0.68
				l-0.353-1.168c-0.416,0.373-0.823,0.701-1.224,0.983c-0.4,0.283-0.813,0.521-1.24,0.712c-0.427,0.192-0.88,0.336-1.359,0.433
				c-0.48,0.096-1.014,0.144-1.601,0.144c-0.693,0-1.333-0.094-1.92-0.28c-0.587-0.188-1.091-0.469-1.512-0.843
				c-0.422-0.375-0.75-0.841-0.984-1.397c-0.234-0.556-0.352-1.203-0.352-1.942c0-0.62,0.162-1.233,0.488-1.838
				c0.325-0.604,0.866-1.15,1.624-1.638c0.757-0.486,1.765-0.891,3.023-1.212c1.259-0.32,2.821-0.481,4.688-0.481v-0.967
				c0-1.107-0.232-1.927-0.696-2.459s-1.139-0.798-2.024-0.798c-0.64,0-1.173,0.074-1.6,0.224s-0.798,0.317-1.112,0.504
				s-0.605,0.354-0.872,0.504s-0.56,0.225-0.88,0.225c-0.267,0-0.496-0.069-0.688-0.208c-0.192-0.139-0.347-0.31-0.464-0.513
				l-0.721-1.264c1.889-1.729,4.166-2.592,6.832-2.592c0.96,0,1.816,0.157,2.568,0.472s1.389,0.752,1.912,1.312
				c0.522,0.56,0.92,1.229,1.191,2.008c0.272,0.778,0.408,1.632,0.408,2.56V33.188z M76.355,30.725c0.405,0,0.778-0.037,1.12-0.11
				c0.341-0.073,0.664-0.184,0.968-0.331c0.304-0.146,0.598-0.328,0.88-0.543s0.568-0.47,0.856-0.764v-2.748
				c-1.152,0-2.115,0.072-2.889,0.218c-0.773,0.145-1.395,0.33-1.863,0.556c-0.47,0.226-0.803,0.489-1,0.79
				c-0.198,0.301-0.297,0.628-0.297,0.982c0,0.698,0.206,1.198,0.616,1.499C75.158,30.574,75.693,30.725,76.355,30.725z"/>
			<path fill="#FFFFFF" d="M90.787,9.412v23.776h-3.951V9.412H90.787z"/>
			<path fill="#FFFFFF" d="M102.637,33.188h-3.584l-6.527-16.416h3.279c0.288,0,0.531,0.069,0.729,0.208s0.333,0.314,0.408,0.528
				l3.168,8.768c0.181,0.512,0.333,1.014,0.456,1.504c0.122,0.491,0.231,0.981,0.327,1.473c0.097-0.491,0.206-0.981,0.328-1.473
				c0.123-0.49,0.28-0.992,0.473-1.504l3.248-8.768c0.074-0.214,0.208-0.39,0.399-0.528c0.192-0.139,0.422-0.208,0.688-0.208h3.12
				L102.637,33.188z"/>
			<path fill="#FFFFFF" d="M117.027,16.517c1.034,0,1.986,0.165,2.855,0.496c0.869,0.33,1.619,0.813,2.248,1.448
				c0.63,0.635,1.12,1.413,1.473,2.336c0.352,0.922,0.527,1.976,0.527,3.159c0,0.299-0.014,0.547-0.04,0.744
				c-0.026,0.198-0.074,0.353-0.144,0.464c-0.069,0.112-0.163,0.192-0.28,0.24s-0.267,0.072-0.448,0.072h-10.144
				c0.117,1.686,0.57,2.923,1.36,3.712c0.789,0.789,1.834,1.184,3.136,1.184c0.64,0,1.191-0.074,1.656-0.224
				c0.464-0.149,0.869-0.314,1.216-0.496c0.347-0.181,0.65-0.347,0.912-0.496c0.261-0.149,0.514-0.224,0.76-0.224
				c0.16,0,0.299,0.032,0.416,0.096c0.117,0.064,0.219,0.155,0.304,0.272l1.152,1.439c-0.438,0.513-0.928,0.941-1.473,1.288
				c-0.544,0.347-1.111,0.624-1.703,0.832c-0.593,0.208-1.195,0.354-1.809,0.44c-0.613,0.085-1.208,0.128-1.784,0.128
				c-1.142,0-2.202-0.189-3.184-0.568c-0.981-0.378-1.835-0.938-2.56-1.68c-0.726-0.741-1.297-1.658-1.713-2.752
				s-0.624-2.36-0.624-3.8c0-1.12,0.182-2.174,0.544-3.16c0.363-0.986,0.883-1.846,1.561-2.576c0.677-0.73,1.504-1.31,2.479-1.736
				C114.699,16.729,115.801,16.517,117.027,16.517z M117.107,19.349c-1.152,0-2.054,0.325-2.704,0.976
				c-0.651,0.651-1.067,1.574-1.248,2.769h7.424c0-0.513-0.069-0.995-0.208-1.448s-0.352-0.851-0.64-1.192
				c-0.288-0.341-0.651-0.61-1.088-0.808C118.206,19.447,117.693,19.349,117.107,19.349z"/>
			<path fill="#FFFFFF" d="M130.732,9.412v23.776h-3.952V9.412H130.732z"/>
			<path fill="#FFFFFF" d="M138.031,16.772v10.432c0,1.003,0.232,1.779,0.696,2.328c0.464,0.55,1.16,0.824,2.088,0.824
				c0.683,0,1.322-0.152,1.92-0.456s1.163-0.723,1.696-1.256V16.772h3.952v16.416h-2.416c-0.513,0-0.849-0.24-1.009-0.72
				l-0.271-1.312c-0.342,0.342-0.693,0.653-1.056,0.937c-0.363,0.282-0.75,0.522-1.16,0.72c-0.411,0.197-0.854,0.352-1.328,0.464
				s-0.984,0.168-1.528,0.168c-0.896,0-1.688-0.152-2.376-0.456c-0.688-0.304-1.267-0.733-1.735-1.288
				c-0.47-0.555-0.824-1.213-1.064-1.976s-0.36-1.603-0.36-2.521V16.772H138.031z"/>
			<path fill="#FFFFFF" d="M155.775,9.412v13.616h0.736c0.266,0,0.474-0.037,0.624-0.112c0.148-0.074,0.309-0.213,0.479-0.416
				l4.08-5.039c0.182-0.214,0.373-0.382,0.576-0.505c0.202-0.122,0.469-0.184,0.8-0.184h3.616l-5.104,6.096
				c-0.182,0.225-0.368,0.43-0.56,0.616c-0.192,0.187-0.4,0.35-0.624,0.488c0.224,0.16,0.421,0.347,0.592,0.56
				c0.171,0.214,0.342,0.443,0.512,0.688l5.473,7.968h-3.568c-0.31,0-0.57-0.054-0.784-0.16c-0.213-0.106-0.405-0.288-0.576-0.544
				l-4.176-6.224c-0.16-0.245-0.319-0.405-0.479-0.48c-0.16-0.074-0.4-0.111-0.721-0.111h-0.896v7.52h-3.952V9.412H155.775z"/>
			<path fill="#FFFFFF" d="M181.244,33.188h-1.776c-0.373,0-0.667-0.056-0.88-0.168c-0.214-0.112-0.374-0.339-0.48-0.68
				l-0.352-1.168c-0.416,0.373-0.824,0.701-1.224,0.983c-0.4,0.283-0.813,0.521-1.24,0.712c-0.427,0.192-0.88,0.336-1.36,0.433
				c-0.479,0.096-1.014,0.144-1.6,0.144c-0.693,0-1.334-0.094-1.92-0.28c-0.587-0.188-1.091-0.469-1.513-0.843
				c-0.421-0.375-0.749-0.841-0.983-1.397c-0.235-0.556-0.353-1.203-0.353-1.942c0-0.62,0.163-1.233,0.488-1.838
				s0.866-1.15,1.624-1.638c0.757-0.486,1.766-0.891,3.024-1.212c1.258-0.32,2.821-0.481,4.688-0.481v-0.967
				c0-1.107-0.231-1.927-0.696-2.459c-0.464-0.532-1.139-0.798-2.023-0.798c-0.641,0-1.174,0.074-1.601,0.224
				s-0.797,0.317-1.111,0.504c-0.315,0.187-0.605,0.354-0.872,0.504s-0.561,0.225-0.88,0.225c-0.267,0-0.496-0.069-0.688-0.208
				c-0.191-0.139-0.347-0.31-0.464-0.513l-0.72-1.264c1.888-1.729,4.165-2.592,6.832-2.592c0.96,0,1.815,0.157,2.567,0.472
				s1.39,0.752,1.912,1.312c0.522,0.56,0.92,1.229,1.192,2.008c0.271,0.778,0.408,1.632,0.408,2.56V33.188z M173.563,30.725
				c0.405,0,0.779-0.037,1.12-0.11c0.342-0.073,0.664-0.184,0.968-0.331c0.305-0.146,0.598-0.328,0.881-0.543
				c0.282-0.215,0.567-0.47,0.855-0.764v-2.748c-1.152,0-2.114,0.072-2.888,0.218c-0.773,0.145-1.395,0.33-1.864,0.556
				s-0.803,0.489-1,0.79s-0.296,0.628-0.296,0.982c0,0.698,0.205,1.198,0.616,1.499C172.366,30.574,172.902,30.725,173.563,30.725z"
				/>
			<path fill="#FFFFFF" d="M184.457,33.188V16.772h2.32c0.405,0,0.688,0.075,0.848,0.224c0.16,0.149,0.267,0.406,0.32,0.769
				l0.239,1.983c0.587-1.013,1.274-1.812,2.064-2.399c0.789-0.587,1.675-0.88,2.656-0.88c0.811,0,1.482,0.187,2.016,0.56
				l-0.512,2.96c-0.032,0.192-0.102,0.328-0.208,0.408c-0.107,0.08-0.251,0.12-0.433,0.12c-0.159,0-0.378-0.037-0.655-0.112
				c-0.277-0.074-0.646-0.112-1.104-0.112c-0.821,0-1.525,0.228-2.112,0.681c-0.586,0.453-1.082,1.117-1.487,1.992v10.224H184.457z"
				/>
			<path fill="#FFFFFF" d="M202.834,33.444c-1.418,0-2.512-0.402-3.279-1.208c-0.769-0.805-1.152-1.917-1.152-3.336v-9.168h-1.664
				c-0.214,0-0.397-0.069-0.552-0.208c-0.155-0.139-0.232-0.347-0.232-0.624v-1.568l2.641-0.432l0.832-4.479
				c0.042-0.214,0.141-0.379,0.296-0.496c0.154-0.117,0.349-0.177,0.584-0.177h2.048v5.168h4.32v2.816h-4.32v8.896
				c0,0.512,0.128,0.911,0.384,1.199s0.598,0.433,1.024,0.433c0.245,0,0.45-0.029,0.615-0.088c0.166-0.059,0.31-0.12,0.433-0.185
				c0.122-0.063,0.231-0.125,0.328-0.184c0.096-0.059,0.191-0.088,0.288-0.088c0.117,0,0.213,0.029,0.287,0.088
				c0.075,0.059,0.155,0.146,0.24,0.264l1.185,1.92c-0.576,0.48-1.238,0.843-1.984,1.088
				C204.407,33.321,203.635,33.444,202.834,33.444z"/>
			<path fill="#FFFFFF" d="M212.882,33.444c-1.419,0-2.512-0.402-3.28-1.208c-0.768-0.805-1.152-1.917-1.152-3.336v-9.168h-1.663
				c-0.214,0-0.397-0.069-0.553-0.208c-0.154-0.139-0.231-0.347-0.231-0.624v-1.568l2.64-0.432l0.832-4.479
				c0.043-0.214,0.142-0.379,0.296-0.496s0.35-0.177,0.584-0.177h2.048v5.168h4.32v2.816h-4.32v8.896
				c0,0.512,0.128,0.911,0.385,1.199c0.256,0.288,0.597,0.433,1.023,0.433c0.245,0,0.45-0.029,0.616-0.088
				c0.165-0.059,0.31-0.12,0.432-0.185c0.123-0.063,0.232-0.125,0.328-0.184s0.192-0.088,0.288-0.088
				c0.117,0,0.213,0.029,0.288,0.088c0.074,0.059,0.154,0.146,0.24,0.264l1.184,1.92c-0.576,0.48-1.237,0.843-1.983,1.088
				C214.455,33.321,213.682,33.444,212.882,33.444z"/>
			<path fill="#FFFFFF" d="M231.982,33.188h-1.775c-0.374,0-0.667-0.056-0.881-0.168c-0.213-0.112-0.373-0.339-0.479-0.68
				l-0.353-1.168c-0.416,0.373-0.823,0.701-1.224,0.983c-0.4,0.283-0.813,0.521-1.24,0.712c-0.427,0.192-0.88,0.336-1.359,0.433
				c-0.48,0.096-1.014,0.144-1.601,0.144c-0.693,0-1.333-0.094-1.92-0.28c-0.587-0.188-1.091-0.469-1.512-0.843
				c-0.422-0.375-0.75-0.841-0.984-1.397c-0.234-0.556-0.352-1.203-0.352-1.942c0-0.62,0.162-1.233,0.488-1.838
				c0.325-0.604,0.866-1.15,1.624-1.638c0.757-0.486,1.765-0.891,3.023-1.212c1.259-0.32,2.821-0.481,4.688-0.481v-0.967
				c0-1.107-0.232-1.927-0.696-2.459s-1.139-0.798-2.024-0.798c-0.64,0-1.173,0.074-1.6,0.224s-0.798,0.317-1.112,0.504
				s-0.605,0.354-0.872,0.504s-0.56,0.225-0.88,0.225c-0.267,0-0.496-0.069-0.688-0.208c-0.192-0.139-0.347-0.31-0.464-0.513
				l-0.721-1.264c1.889-1.729,4.166-2.592,6.832-2.592c0.96,0,1.816,0.157,2.568,0.472s1.389,0.752,1.912,1.312
				c0.522,0.56,0.92,1.229,1.191,2.008c0.272,0.778,0.408,1.632,0.408,2.56V33.188z M224.303,30.725c0.405,0,0.778-0.037,1.12-0.11
				c0.341-0.073,0.664-0.184,0.968-0.331c0.304-0.146,0.598-0.328,0.88-0.543s0.568-0.47,0.856-0.764v-2.748
				c-1.152,0-2.115,0.072-2.889,0.218c-0.773,0.145-1.395,0.33-1.863,0.556c-0.47,0.226-0.803,0.489-1,0.79
				c-0.198,0.301-0.297,0.628-0.297,0.982c0,0.698,0.206,1.198,0.616,1.499C223.105,30.574,223.641,30.725,224.303,30.725z"/>
		</g>
	</g>
</g>
<g id="Frames_for_sizing">
</g>
</svg>
